<svg width="157" height="24" viewBox="0 0 157 24" fill="none" xmlns="http://www.w3.org/2000/svg"><path d="M22.7368 12.2518C22.7368 11.1211 22.5819 10.0273 22.2936 8.99292C22.0264 8.03654 22.0557 7.02148 22.3439 6.07097C22.8541 4.38787 22.3959 2.48516 21.0085 1.22367C19.627 -0.0327844 17.7034 -0.312742 16.0814 0.342728C15.1548 0.716564 14.1444 0.810442 13.1584 0.64867C12.5753 0.553115 11.9771 0.503662 11.368 0.503662C5.08959 0.502824 0 5.76335 0 12.2518C0 14.2073 0.462461 16.0505 1.28015 17.6725C1.51305 18.1343 1.56332 18.6674 1.41503 19.1619C1.17794 19.9523 1.35555 20.8434 1.95876 21.4896C2.55778 22.1317 3.42741 22.3705 4.22666 22.1945C4.73353 22.083 5.26133 22.1769 5.70788 22.4418C7.37425 23.4334 9.30703 24 11.368 24C12.8651 24 14.2952 23.7008 15.6047 23.1568C16.0605 22.9673 16.5657 22.9489 17.0407 23.083C18.3954 23.4661 19.911 23.0771 20.9096 21.954C21.8153 20.9356 22.0716 19.5659 21.7105 18.3489C21.5732 17.8862 21.6058 17.3875 21.7935 16.9432C22.4 15.5066 22.7368 13.9198 22.7368 12.2518ZM10.2613 22.1065C8.97024 22.1065 7.74371 21.7981 6.63783 21.2448C6.23988 21.0454 6.02875 20.6103 6.08656 20.1694C6.17788 19.483 5.97178 18.7621 5.4624 18.2156C4.9346 17.6498 4.1965 17.3975 3.48186 17.4654C3.05208 17.5065 2.63905 17.281 2.45138 16.8913C1.78701 15.5082 1.41 13.9291 1.41 12.251C1.41 6.80858 5.37192 2.39631 10.2596 2.39631C10.7891 2.39631 11.3068 2.44828 11.8104 2.54719C12.6473 2.71231 13.2246 3.47842 13.1575 4.32835C13.0469 5.72898 13.5613 7.16398 14.6806 8.18239C15.4908 8.91916 16.4869 9.31982 17.4998 9.39274C18.2898 9.44974 18.9215 10.0734 19.0212 10.8596C19.079 11.3139 19.1084 11.7782 19.1084 12.2502C19.1084 12.9408 19.0447 13.6147 18.9232 14.2652C18.7867 14.9978 18.1994 15.5669 17.4646 15.6859C16.6344 15.8209 15.8435 16.2308 15.2403 16.9089C14.5265 17.711 14.2157 18.7319 14.2927 19.7244C14.3539 20.5165 13.9149 21.2683 13.1751 21.5558C12.2619 21.9112 11.28 22.104 10.2588 22.104L10.2613 22.1065Z" fill="url(#paint0_linear_22_31763)"></path><path d="M36.8288 6.11776H34.7373V17.8587H36.8288V6.11776Z" fill="#EFEBE4"></path><path d="M49.3046 14.3399L42.7899 6.11776H40.8586V17.861H42.8653V9.38449L49.5754 17.8045L49.6178 17.861H51.3112V6.11776H49.3046V14.3399Z" fill="#EFEBE4"></path><path d="M60.8524 10.9719C58.0591 10.3078 57.303 10.0086 57.303 9.16546C57.303 7.98312 59.0506 7.85358 59.8019 7.85358C61.4648 7.85358 62.6589 8.44475 63.1629 9.51639L63.2383 9.67655L64.8375 8.51776L64.7833 8.40707C64.0508 6.87615 62.2467 6 59.8349 6C56.9403 6 55.2115 7.21531 55.2115 9.25025C55.2115 11.2852 56.905 12.0765 59.6347 12.6842C62.2726 13.2636 62.9957 13.6852 62.9957 14.6438C62.9957 15.6707 62.0983 16.1935 60.3272 16.1935C58.2216 16.1935 56.7001 15.282 56.262 13.7558L56.2031 13.5509L54.5733 14.778L54.6063 14.8793C55.2563 16.8318 57.376 18 60.2754 18C63.3442 18 65.1036 16.7658 65.1036 14.6131C65.1036 12.4605 63.6104 11.6361 60.8524 10.9766V10.9719Z" fill="#EFEBE4"></path><path d="M70.728 6.11776H68.6365V17.8587H70.728V6.11776Z" fill="#EFEBE4"></path><path d="M78.9078 6.11776H74.7578V17.8587H78.7877C83.1048 17.8587 85.4813 15.8308 85.4813 12.1496C85.4813 8.4683 83.086 6.11776 78.9078 6.11776ZM76.8328 7.99019H78.9078C81.7765 7.99019 83.3569 9.47399 83.3569 12.1684C83.3569 14.8628 81.8424 16.0404 78.8583 16.0404H76.8352V7.99019H76.8328Z" fill="#EFEBE4"></path><path d="M91.1669 12.5523H96.8148V10.6799H91.1669V8.00667H97.8487V6.11776H89.0919V17.861H98.0866V16.0051H91.1669V12.5523Z" fill="#EFEBE4"></path><path d="M111.439 9.5211C111.439 7.29539 110.103 6.11776 107.578 6.11776H101.36V17.8587H103.452V12.9244H106.874L109.18 17.8587H111.439L109.024 12.7596C110.605 12.3521 111.436 11.2357 111.436 9.5211H111.439ZM103.452 7.95721H107.376C108.711 7.95721 109.331 8.45888 109.331 9.53994C109.331 10.621 108.709 11.1062 107.376 11.1062H103.452V7.95721Z" fill="#EFEBE4"></path><path d="M123.919 6C120.061 6 117.666 8.3317 117.666 12.0836C117.666 15.8355 120.106 17.9812 123.884 17.9812C127.662 17.9812 130.12 15.6495 130.12 11.8975C130.12 8.14563 127.687 6 123.919 6ZM123.919 7.88891C126.444 7.88891 128.013 9.4316 128.013 11.914C128.013 14.5401 126.463 16.1087 123.87 16.1087C121.276 16.1087 119.776 14.566 119.776 12.0836C119.776 9.45751 121.326 7.88891 123.919 7.88891Z" fill="#EFEBE4"></path><path d="M141.651 14.3399L135.136 6.11776H133.205V17.861H135.211V9.38449L141.919 17.8045L141.964 17.861H143.657V6.11776H141.651V14.3399Z" fill="#EFEBE4"></path><path d="M149.368 16.0051V12.5523H155.016V10.6799H149.368V8.00667H156.05V6.11776H147.293V17.861H156.287V16.0051H149.368Z" fill="#EFEBE4"></path><defs><linearGradient id="paint0_linear_22_31763" x1="11.3684" y1="0" x2="11.3684" y2="24" gradientUnits="userSpaceOnUse"><stop stop-color="#E92E2F"></stop><stop offset="1" stop-color="#FF6126"></stop></linearGradient></defs></svg>